<?xml version="1.0" standalone="no"?>
<!DOCTYPE svg PUBLIC "-//W3C//DTD SVG 20010904//EN"
 "http://www.w3.org/TR/2001/REC-SVG-20010904/DTD/svg10.dtd">
<svg version="1.0" xmlns="http://www.w3.org/2000/svg"
 width="720.000000pt" height="713.000000pt" viewBox="0 0 720.000000 713.000000"
 preserveAspectRatio="xMidYMid meet">
<metadata>
Created by potrace 1.15, written by Peter Selinger 2001-2017
</metadata>
<g transform="translate(0.000000,713.000000) scale(0.100000,-0.100000)"
fill="#000000" stroke="none">
<path d="M5299 7072 c-24 -26 -60 -66 -79 -88 -19 -21 -71 -79 -114 -127 -60
-67 -76 -91 -68 -99 21 -21 13 -31 -18 -25 -23 5 -32 2 -40 -13 -5 -10 -16
-24 -23 -32 -7 -7 -35 -38 -62 -68 -45 -52 -127 -144 -240 -270 -27 -31 -63
-72 -80 -91 -69 -79 -177 -201 -271 -305 -134 -148 -144 -159 -144 -167 0 -4
-708 -7 -1572 -7 -865 0 -1594 0 -1620 0 -41 0 -48 -3 -48 -20 0 -11 4 -20 9
-20 5 0 7 -9 4 -20 -4 -14 0 -20 11 -20 9 0 16 -4 16 -9 0 -5 24 -18 53 -28
l52 -18 -50 -5 c-40 -4 -50 -9 -49 -22 1 -14 -3 -17 -24 -11 -21 5 -24 3 -19
-11 7 -17 -8 -23 -18 -6 -9 15 -25 12 -25 -5 0 -8 -4 -15 -10 -15 -5 0 -18
-28 -29 -62 l-20 -63 0 63 c-1 59 -2 63 -21 57 -18 -6 -20 -3 -14 19 3 15 2
26 -4 26 -6 0 -8 8 -6 18 4 13 -8 23 -44 40 -28 12 -59 22 -70 22 -12 0 -24 5
-27 10 -4 6 15 10 51 10 52 0 56 2 51 21 -5 18 -2 20 18 15 13 -3 26 -2 29 3
3 5 15 7 26 4 14 -4 20 0 20 10 0 22 -12 22 -448 19 l-382 -2 0 -405 c1 -252
4 -405 10 -405 15 0 12 -107 -2 -114 -10 -5 -10 -7 0 -12 15 -7 17 -114 1
-114 -8 0 -9 -153 -5 -542 3 -299 7 -559 8 -578 2 -19 -1 -43 -7 -53 -7 -13
-7 -20 2 -25 13 -8 15 -72 1 -72 -4 0 -8 -466 -8 -1035 l0 -1035 763 -1 c419
-1 766 -1 770 0 5 1 587 1 1293 1 1012 0 1288 -3 1297 -13 7 -7 46 -50 87 -97
41 -47 77 -87 80 -90 3 -3 59 -66 125 -140 342 -387 411 -463 463 -517 12 -13
22 -26 22 -28 0 -3 12 -17 28 -32 15 -16 79 -86 141 -158 188 -214 273 -305
287 -305 7 0 24 15 40 33 40 48 146 168 171 194 12 13 66 74 120 136 54 61
102 117 108 123 5 6 35 39 65 74 30 35 62 71 70 79 9 9 47 52 85 96 39 44 79
89 90 101 11 11 52 56 90 99 39 43 82 92 98 109 18 21 27 41 27 64 0 30 2 33
16 21 17 -14 36 3 108 91 15 19 47 55 70 80 22 25 75 84 116 130 41 47 77 87
80 90 3 3 16 19 29 35 12 17 44 53 70 80 26 28 124 138 219 247 l172 196 0
1477 0 1477 -107 122 c-60 67 -126 144 -148 171 -22 27 -67 78 -99 112 -32 35
-66 72 -75 82 -131 150 -128 147 -196 222 -27 30 -77 86 -110 124 -33 38 -78
90 -101 115 -47 52 -78 87 -204 230 -51 58 -107 121 -124 140 -18 19 -77 87
-131 150 -86 99 -104 115 -130 115 -27 0 -30 3 -28 31 2 22 -6 40 -28 65 -17
19 -58 65 -92 104 -213 239 -261 290 -271 293 -7 1 -32 -19 -57 -46z m781
-1517 c0 6 11 -3 25 -19 21 -24 33 -29 70 -29 49 0 60 -11 20 -21 -14 -4 -25
-11 -25 -17 0 -14 -26 -39 -39 -39 -11 0 -15 -31 -11 -77 2 -31 -16 -29 -24 3
-4 14 -12 24 -19 21 -6 -2 -20 7 -30 19 -22 28 -56 27 -68 -3 -11 -30 -36 -29
-65 3 -13 14 -24 27 -24 29 0 2 20 11 45 21 25 9 45 22 45 28 0 6 14 19 30 28
27 15 30 22 30 65 l1 48 19 -35 c11 -19 19 -30 20 -25z m-248 -726 l61 -40
111 -2 c134 -3 166 -19 239 -118 18 -25 37 -39 59 -43 23 -4 45 -20 72 -54 53
-65 68 -103 64 -170 -3 -51 -1 -57 17 -57 13 0 22 -9 25 -25 3 -14 13 -36 22
-50 9 -14 19 -47 21 -75 3 -36 9 -51 21 -53 17 -4 23 -22 6 -22 -26 0 2 -73
33 -87 19 -8 17 -11 -16 -27 -20 -9 -42 -26 -48 -38 -11 -20 -11 -20 -28 6
-13 20 -20 23 -29 14 -7 -7 -12 -17 -12 -24 0 -18 -27 -37 -35 -24 -13 21 -25
-2 -25 -50 0 -55 -10 -85 -37 -117 -24 -28 -88 -60 -135 -68 -28 -5 -38 -12
-38 -26 0 -10 -11 -26 -24 -34 -13 -9 -30 -30 -37 -48 -7 -18 -25 -52 -40 -75
-26 -41 -29 -72 -7 -72 5 0 26 -11 46 -25 41 -28 52 -31 52 -12 0 7 10 17 21
22 12 6 30 30 39 54 l17 45 7 -40 c15 -79 52 -139 114 -181 31 -22 75 -50 98
-61 64 -33 69 -43 69 -151 l0 -96 40 -5 c28 -4 41 -10 43 -23 3 -17 -1 -18
-30 -12 -91 18 -103 34 -114 148 l-7 75 -65 29 c-36 15 -70 30 -74 31 -4 2 -8
-3 -8 -11 0 -9 5 -17 11 -19 16 -5 24 -152 9 -188 -12 -29 -11 -32 36 -77 49
-47 49 -47 22 -51 -21 -2 -38 7 -77 44 l-50 47 1 74 c1 40 -2 76 -5 80 -14 14
-37 -21 -35 -53 3 -45 -5 -50 -46 -30 -26 12 -49 15 -90 10 -61 -7 -61 -8 -45
-65 10 -32 9 -48 -11 -108 -12 -39 -26 -71 -31 -71 -24 0 -4 -31 33 -52 44
-24 61 -48 34 -48 -9 0 -16 -5 -16 -10 0 -16 -119 71 -125 91 -7 21 11 68 28
75 9 3 13 25 14 70 l1 65 -39 19 c-21 11 -42 26 -46 34 -14 26 -117 74 -145
69 -14 -3 -54 2 -88 11 -35 9 -65 15 -66 13 -2 -2 7 -19 21 -37 14 -18 35 -65
47 -104 15 -51 33 -84 63 -116 78 -86 114 -206 82 -281 -25 -62 -134 -99 -288
-99 -70 0 -198 32 -374 94 -55 20 -107 36 -115 36 -9 0 -21 -15 -28 -32 -12
-31 -55 -88 -66 -88 -9 0 -43 84 -50 125 -4 22 -13 46 -19 53 -8 11 -7 16 5
23 9 5 19 21 22 35 4 14 19 41 34 60 l27 34 27 -53 c15 -28 27 -60 28 -70 0
-22 63 -50 185 -82 105 -28 272 -47 297 -34 9 5 27 9 39 9 34 0 90 23 86 35
-2 6 -49 9 -133 7 -135 -4 -243 9 -282 34 -38 25 -15 34 83 34 99 0 211 26
235 55 15 18 15 95 0 144 -5 19 -7 51 -4 72 6 33 2 41 -35 80 -23 24 -41 47
-41 50 0 11 -134 96 -171 108 -51 16 -129 68 -129 85 0 26 -64 76 -119 94 -32
10 -69 30 -87 48 -45 46 -71 61 -145 84 -37 11 -72 27 -79 35 -8 10 -31 15
-70 15 -50 0 -58 -3 -67 -23 -10 -22 -8 -25 28 -41 22 -10 46 -30 53 -45 13
-24 50 -48 126 -81 20 -8 12 -9 -41 -5 -67 5 -103 0 -94 -15 2 -4 70 -18 150
-31 124 -20 145 -26 145 -41 0 -10 5 -18 10 -18 6 0 10 -4 10 -9 0 -13 -79
-19 -83 -6 -2 5 -4 -103 -4 -240 0 -173 -3 -262 -12 -288 -28 -84 -141 -113
-246 -63 -77 36 -135 107 -135 166 0 88 85 110 134 35 24 -36 32 -107 12 -99
-20 8 -14 -27 7 -40 12 -8 22 -8 35 0 15 10 17 37 20 283 l2 273 -30 11 c-16
6 -30 15 -30 19 0 4 -5 8 -11 8 -7 0 -17 8 -24 17 -8 11 -33 19 -69 23 -53 6
-59 4 -78 -19 -17 -22 -19 -36 -15 -96 4 -72 24 -125 87 -232 38 -67 17 -73
-33 -10 -71 89 -201 329 -212 392 -4 21 -17 49 -29 60 -20 19 -23 19 -39 4
-21 -19 -22 -35 -2 -43 8 -3 15 -15 15 -26 0 -11 6 -20 13 -20 8 0 7 -4 -3
-10 -8 -5 -23 -7 -33 -4 -43 14 -47 -6 -47 -240 0 -238 -6 -280 -48 -327 -67
-75 -236 -39 -318 68 -36 47 -40 124 -9 147 31 23 64 19 95 -12 34 -34 55 -99
39 -119 -6 -7 -16 -10 -21 -7 -6 4 -5 -3 1 -15 12 -22 36 -27 61 -11 13 8 15
52 18 274 l3 265 -50 32 c-86 52 -64 60 94 34 125 -20 138 -20 125 4 -5 11
-10 40 -10 64 0 62 41 116 115 153 50 24 67 27 151 26 60 0 99 4 107 11 14 13
82 48 139 71 21 8 80 18 132 22 l94 7 66 -54 c37 -30 76 -73 88 -97 20 -37 59
-64 72 -51 2 2 -5 24 -17 49 -28 58 -90 118 -154 146 -28 13 -55 30 -60 38 -4
8 -24 21 -43 29 -31 14 -32 15 -10 16 23 1 23 2 8 17 -16 17 -29 20 -173 44
-95 17 -96 17 -89 35 4 10 13 14 23 10 8 -3 61 -13 116 -20 55 -8 140 -26 189
-40 49 -15 99 -24 111 -21 14 4 28 0 35 -9 6 -8 28 -19 48 -26 20 -6 41 -15
46 -20 15 -14 39 -11 66 9 24 17 51 19 264 21 26 0 55 6 63 13 12 10 18 8 31
-8 10 -12 38 -29 65 -38 26 -10 52 -27 58 -38 12 -22 35 -22 194 -2 80 9 82
11 47 45 -36 35 -34 49 7 49 29 0 34 7 72 110 8 19 30 52 51 72 24 23 38 47
38 62 0 13 2 31 5 38 3 8 -3 25 -15 38 -11 13 -21 37 -22 54 -1 17 -2 40 -3
51 0 17 -6 19 -37 17 -75 -7 -140 50 -125 108 7 29 -6 25 -37 -11 -53 -59
-199 -102 -273 -80 -36 10 -45 4 -49 -37 -4 -39 -50 -107 -92 -136 -54 -37
-127 -63 -200 -72 -58 -6 -159 2 -149 12 3 3 45 9 95 14 63 6 104 16 139 33
56 29 69 41 78 79 6 23 0 34 -43 75 -54 53 -71 97 -51 135 17 33 50 68 80 83
22 12 27 23 33 72 3 32 7 66 9 77 1 15 -12 24 -63 43 l-65 24 80 -6 c72 -5 84
-4 108 15 33 26 122 50 190 51 29 0 61 4 72 8 11 5 22 4 23 -1 2 -5 31 -27 64
-49z m-2575 -1219 c76 -11 156 -25 178 -31 164 -44 268 -172 295 -360 10 -68
2 -122 -28 -201 -27 -68 -122 -121 -222 -122 -105 -2 -345 37 -367 60 -7 7
-18 14 -25 16 -6 2 -8 10 -4 17 5 7 15 10 23 6 9 -3 26 2 39 10 l24 15 0 258
c0 217 -2 261 -16 280 -8 12 -19 22 -24 22 -12 0 -50 32 -50 42 0 12 25 10
177 -12z m-2477 -644 c6 -6 17 -3 28 7 18 16 19 16 30 -8 11 -23 9 -27 -13
-35 -30 -11 -34 -25 -5 -17 24 6 25 -1 3 -25 -16 -18 -16 -19 5 -25 12 -3 22
-8 22 -12 0 -4 26 -16 58 -27 l57 -19 -55 -5 c-45 -4 -54 -8 -52 -22 2 -13 -4
-18 -23 -18 -17 0 -25 -5 -25 -17 0 -15 -1 -15 -13 2 -17 22 -37 12 -37 -18 0
-12 -9 -33 -20 -47 -11 -14 -20 -31 -20 -37 0 -7 -4 -13 -10 -13 -5 0 -10 23
-10 51 0 47 -1 50 -21 44 -19 -6 -21 -4 -16 14 3 14 0 21 -9 21 -8 0 -14 5
-14 10 0 6 5 10 10 10 6 0 10 7 10 15 0 8 -9 15 -20 15 -11 0 -20 4 -20 9 0 4
-21 14 -47 21 -81 20 -94 28 -48 30 22 1 50 1 63 0 16 -1 22 4 22 19 0 16 6
21 24 21 13 0 26 6 29 13 3 9 8 9 21 -2 15 -13 18 -12 23 7 3 12 9 19 14 17 9
-6 29 57 29 91 0 44 15 33 18 -13 2 -26 7 -52 12 -57z m610 82 c16 -10 22 -10
28 -1 12 20 35 -2 27 -26 -4 -12 -2 -21 4 -21 6 0 11 -11 11 -25 0 -21 -5 -25
-29 -25 -27 0 -29 -3 -26 -30 l4 -31 -60 2 c-38 1 -58 6 -56 13 3 6 10 10 16
9 21 -5 12 44 -9 50 -22 6 -28 -8 -7 -16 8 -3 6 -7 -7 -12 -21 -9 -36 8 -36
43 0 15 6 22 20 22 11 0 20 -4 20 -10 0 -5 6 -10 14 -10 9 0 14 9 13 20 -1 19
-17 25 -59 21 -10 -1 -18 4 -18 12 0 11 15 15 57 16 31 0 59 3 61 6 7 7 10 7
32 -7z m3047 -202 l25 -38 -38 -39 c-21 -22 -42 -39 -47 -39 -13 0 -127 120
-127 133 0 6 19 31 42 54 l42 43 39 -38 c22 -20 50 -54 64 -76z m-1448 -192
c16 -21 18 -29 8 -44 -6 -11 -7 -23 -3 -27 5 -4 11 -2 13 5 5 13 33 17 33 4 0
-15 -22 -30 -36 -25 -17 6 -19 -13 -3 -23 6 -3 15 -1 19 6 7 11 11 10 24 -3
22 -22 20 -30 -6 -22 -21 7 -22 6 -7 -10 9 -9 36 -19 60 -22 45 -6 69 -18 69
-36 0 -14 -66 -3 -139 23 -104 38 -144 98 -110 163 24 44 49 48 78 11z m3287
-134 c8 0 15 -8 15 -17 1 -10 2 -25 3 -33 0 -8 26 -25 56 -37 l55 -22 -42 -1
c-31 0 -43 -4 -43 -15 0 -10 -10 -15 -30 -15 -31 0 -46 -17 -66 -80 l-12 -35
-1 43 c-1 30 -5 42 -16 42 -10 0 -15 10 -15 26 0 31 -33 64 -64 64 -12 0 -28
4 -36 10 -13 8 -13 10 1 15 8 3 26 4 39 3 16 -2 24 2 23 10 -3 11 4 14 51 16
13 1 27 16 40 44 l21 43 3 -31 c2 -18 9 -30 18 -30z m-4010 -391 c53 -14 119
-73 127 -115 15 -83 -86 -131 -198 -94 -45 15 -105 82 -105 118 0 36 25 71 64
88 38 16 55 17 112 3z m129 -299 c113 -56 113 -194 0 -218 -63 -13 -120 1
-172 44 -56 46 -74 100 -48 141 42 65 127 78 220 33z m-749 -95 c28 -30 32
-41 27 -68 -3 -18 -13 -38 -21 -44 -41 -33 -146 1 -152 48 -9 61 21 99 76 99
29 0 44 -7 70 -35z m1832 -145 c306 0 461 -3 457 -10 -4 -6 -192 -10 -531 -10
-480 0 -524 1 -524 16 0 15 9 16 68 11 37 -4 275 -7 530 -7z"/>
<path d="M6254 4469 c-3 -6 -21 -17 -39 -25 -54 -22 -50 -95 9 -161 28 -33 85
-31 110 4 17 23 18 32 8 82 -16 88 -28 111 -56 111 -14 0 -28 -5 -32 -11z"/>
<path d="M5215 3868 c-29 -16 -29 -16 -15 -33 11 -13 8 -15 -23 -15 -20 0 -38
-4 -42 -10 -3 -5 -12 -7 -20 -3 -24 8 -18 -22 10 -55 14 -17 25 -42 25 -56 0
-35 21 -34 74 4 44 32 180 80 227 80 32 0 44 13 26 28 -16 14 -88 38 -152 52
-27 5 -59 12 -70 15 -11 2 -29 -1 -40 -7z"/>
<path d="M4718 3737 c-21 -6 -38 -14 -38 -18 0 -4 27 -16 61 -25 56 -16 132
-60 201 -116 36 -28 46 -17 19 21 -12 17 -26 43 -32 60 -7 19 -21 33 -42 41
-18 6 -51 20 -75 31 -23 10 -46 18 -50 18 -4 -1 -24 -6 -44 -12z"/>
<path d="M5218 3613 c-10 -3 -18 -9 -18 -13 0 -5 -21 -16 -47 -23 -54 -16 -66
-39 -31 -58 13 -6 33 -24 46 -40 15 -18 33 -29 48 -29 22 0 25 4 22 27 -2 19
-10 29 -23 31 -42 7 -46 11 -35 32 12 23 33 26 52 6 8 -7 28 -21 45 -29 17 -9
33 -23 36 -32 9 -21 21 -19 54 9 l28 25 -39 40 c-22 23 -47 43 -55 45 -37 10
-67 13 -83 9z"/>
<path d="M3958 3471 c22 -22 22 -24 22 -301 l0 -280 -25 -16 c-31 -21 -69 -12
-91 21 -14 22 -14 26 0 47 33 46 7 108 -44 108 -67 0 -72 -84 -8 -149 40 -41
91 -63 149 -63 56 0 95 17 123 55 20 27 21 45 26 279 5 243 6 250 27 268 22
18 22 18 -60 29 -45 7 -95 14 -112 17 l-30 6 23 -21z"/>
<path d="M4686 3355 l25 -25 -3 -276 c-3 -262 -4 -276 -23 -290 -24 -18 -62
-11 -90 17 -19 19 -19 21 -2 50 22 39 22 51 -4 83 -48 61 -119 8 -88 -66 31
-76 99 -118 190 -118 67 0 106 22 130 73 16 37 19 68 19 274 0 226 1 233 22
253 12 11 18 20 12 20 -5 0 -49 7 -99 15 -118 19 -118 19 -89 -10z"/>
<path d="M6078 3264 c-4 -3 -62 -6 -129 -6 l-123 0 38 -20 c30 -15 40 -17 52
-7 12 10 20 7 44 -16 15 -15 33 -24 39 -21 10 7 82 -39 89 -57 5 -11 79 -47
97 -47 8 0 15 4 15 9 0 17 -23 77 -36 92 -8 9 -12 18 -9 21 3 3 1 17 -4 32 -8
20 -17 26 -39 26 -16 0 -31 -3 -34 -6z"/>
<path d="M3158 3587 c22 -23 22 -30 22 -305 0 -271 -1 -281 -20 -295 -20 -14
-19 -15 17 -20 21 -3 87 -13 148 -22 164 -25 246 -6 314 71 44 51 61 104 61
197 0 140 -77 268 -196 323 -41 19 -306 74 -358 74 -5 0 0 -10 12 -23z m245
-43 c98 -33 147 -141 147 -323 -1 -182 -46 -261 -150 -261 -84 0 -80 -17 -80
310 0 328 -7 305 83 274z"/>
<path d="M3348 3272 c-2 -141 0 -267 4 -279 6 -19 15 -23 49 -23 33 0 47 6 74
33 40 40 54 85 62 193 4 58 1 103 -12 159 -21 94 -56 139 -127 160 l-47 14 -3
-257z"/>
<path d="M2163 2098 c-51 -25 -40 -88 22 -119 50 -25 119 -20 157 11 l23 18
-19 37 c-11 20 -27 40 -35 44 -26 13 -71 22 -70 14 1 -5 1 -19 0 -32 l-1 -24
-25 23 c-13 12 -22 27 -19 31 7 12 -6 10 -33 -3z"/>
<path d="M2318 1800 c5 -37 -3 -38 -34 -5 -13 14 -27 25 -32 25 -19 0 -42 -38
-42 -68 0 -26 7 -36 40 -57 44 -28 119 -34 165 -13 47 21 28 86 -39 127 -48
30 -64 28 -58 -9z"/>
</g>
</svg>
